<svg width="16" height="18" viewBox="0 0 16 18" fill="none" xmlns="http://www.w3.org/2000/svg">
<path d="M11.3796 11.9638L15 15.8116L13.8819 17L10.1224 13.0044C9.2241 13.564 8.1781 13.8849 7.0616 13.8849C3.71387 13.8849 1 11.0005 1 7.44243C1 3.88437 3.71387 1 7.0616 1C10.4093 1 13.1232 3.88437 13.1232 7.44243C13.1232 9.20417 12.4578 10.8007 11.3796 11.9638ZM7.0616 12.2042C9.536 12.2042 11.5419 10.0723 11.5419 7.44243C11.5419 4.81256 9.536 2.68063 7.0616 2.68063C4.58719 2.68063 2.58129 4.81256 2.58129 7.44243C2.58129 10.0723 4.58719 12.2042 7.0616 12.2042Z" fill="black" stroke="black"/>
</svg>
