<svg width="18" height="18" viewBox="0 0 18 18" fill="none" xmlns="http://www.w3.org/2000/svg">
<path fill-rule="evenodd" clip-rule="evenodd" d="M16.7231 2.64948L15.3353 1.28369L8.61365 7.8984L2.19019 1.57708L0.802323 2.94287L7.22579 9.26419L0.762695 15.6245L2.15056 16.9903L8.61365 10.63L15.3749 17.2837L16.7627 15.9179L10.0015 9.26419L16.7231 2.64948Z" fill="black"/>
<path d="M15.3353 1.28369L15.686 0.927316L15.3353 0.582184L14.9845 0.927316L15.3353 1.28369ZM16.7231 2.64948L17.0738 3.00586L17.436 2.64948L17.0738 2.29311L16.7231 2.64948ZM8.61365 7.8984L8.26295 8.25478L8.61365 8.59991L8.96436 8.25478L8.61365 7.8984ZM2.19019 1.57708L2.54089 1.2207L2.19019 0.875571L1.83948 1.2207L2.19019 1.57708ZM0.802323 2.94287L0.451615 2.5865L0.0894805 2.94287L0.451615 3.29925L0.802323 2.94287ZM7.22579 9.26419L7.5765 9.62057L7.93864 9.26419L7.5765 8.90782L7.22579 9.26419ZM0.762695 15.6245L0.411987 15.2681L0.0498525 15.6245L0.411987 15.9809L0.762695 15.6245ZM2.15056 16.9903L1.79985 17.3467L2.15056 17.6918L2.50127 17.3467L2.15056 16.9903ZM8.61365 10.63L8.96436 10.2736L8.61365 9.92848L8.26295 10.2736L8.61365 10.63ZM15.3749 17.2837L15.0242 17.6401L15.3749 17.9852L15.7256 17.6401L15.3749 17.2837ZM16.7627 15.9179L17.1134 16.2743L17.4756 15.9179L17.1134 15.5615L16.7627 15.9179ZM10.0015 9.26419L9.65081 8.90782L9.28867 9.26419L9.65081 9.62057L10.0015 9.26419ZM14.9845 1.64007L16.3724 3.00586L17.0738 2.29311L15.686 0.927316L14.9845 1.64007ZM8.96436 8.25478L15.686 1.64007L14.9845 0.927316L8.26295 7.54202L8.96436 8.25478ZM1.83948 1.93345L8.26295 8.25478L8.96436 7.54202L2.54089 1.2207L1.83948 1.93345ZM1.15303 3.29925L2.54089 1.93345L1.83948 1.2207L0.451615 2.5865L1.15303 3.29925ZM7.5765 8.90782L1.15303 2.5865L0.451615 3.29925L6.87508 9.62057L7.5765 8.90782ZM1.1134 15.9809L7.5765 9.62057L6.87508 8.90782L0.411987 15.2681L1.1134 15.9809ZM2.50127 16.6339L1.1134 15.2681L0.411987 15.9809L1.79985 17.3467L2.50127 16.6339ZM8.26295 10.2736L1.79985 16.6339L2.50127 17.3467L8.96436 10.9864L8.26295 10.2736ZM15.7256 16.9273L8.96436 10.2736L8.26295 10.9864L15.0242 17.6401L15.7256 16.9273ZM16.412 15.5615L15.0242 16.9273L15.7256 17.6401L17.1134 16.2743L16.412 15.5615ZM9.65081 9.62057L16.412 16.2743L17.1134 15.5615L10.3522 8.90782L9.65081 9.62057ZM16.3724 2.29311L9.65081 8.90782L10.3522 9.62057L17.0738 3.00586L16.3724 2.29311Z" fill="black"/>
</svg>
