<svg width="182" height="157" viewBox="0 0 182 157" fill="none" xmlns="http://www.w3.org/2000/svg">
<path d="M145.77 82.0985C145.827 83.7295 145.244 85.358 144.36 86.4902C145.925 88.1432 143.802 92.7353 143.14 95.1194C141.942 99.4426 141.735 102.565 142.123 106.954C142.446 110.62 142.577 114.16 142.123 117.889C141.709 121.308 140.356 125.032 140.729 128.494C145.421 129.636 136.093 135.764 138.893 139.559C136.591 142.882 133.405 137.813 131.209 136.39C128.219 134.451 125.039 133.632 122.134 131.419C118.989 129.023 103.725 121.073 107.994 116.349C107.082 114.344 104.98 111.517 103.656 109.808C102.309 108.074 98.8324 106.971 98.4832 105.326L1 102.881C1.60235 99.9047 0.395464 98.5769 2.08904 95.963C2.95984 94.6206 5.17283 91.7083 6.43647 90.6324C9.93056 87.659 16.9908 87.3533 17.7961 80.9322C19.7668 80.8295 20.6595 79.1447 21.6852 77.5211C20.8908 75.6602 19.6795 73.9633 19.123 71.9753C16.4997 71.6819 16.2596 62.9206 18.0776 61.2921C18.5469 60.8715 21.9056 60.424 22.8223 59.9765C24.4875 59.1672 25.4325 58.2942 27.1871 58.0497C30.2295 57.6291 34.0466 57.9763 36.9274 58.1402C40.1072 58.3187 44.5769 58.3945 47.222 60.4044C47.988 60.9864 49.2975 63.4708 50.0788 63.6835C52.5581 64.3633 52.6083 61.72 54.4699 61.2823C55.7226 60.9864 58.4005 61.5757 59.9544 61.3923C61.7331 61.182 63.7758 61.5415 65.3821 61.3336C70.7094 60.6416 70.3603 54.443 74.8277 52.724C77.6496 51.6383 81.5737 55.426 80.5785 48.7676C80.3755 47.4129 79.9194 46.4373 78.9045 45.7526C78.8303 42.9479 82.0691 42.9871 82.5754 40.5687C83.372 36.7591 79.4021 38.2629 78.0228 35.6367C75.6199 31.0617 79.7251 31.1375 81.7504 29.4503C82.6911 28.6653 83.2258 27.027 84.0245 26.3644C85.059 25.5037 85.3122 25.6895 86.4798 25.0391C87.8787 24.2639 88.3632 25.1907 89.76 23.7235C90.6766 22.7674 90.4824 21.2807 91.1087 20.1535C92.5492 17.564 94.7818 13.4805 96.7264 11.4852C100.312 7.81241 105.12 5.04686 109.134 2.28375C119.11 5.26937 131.515 2.2813 141.659 1C136.617 1.30321 145.118 11.7077 140.98 14.4683C146.746 20.3662 141.678 27.2765 141.403 33.5925C141.233 37.5244 141.868 41.6202 141.667 44.9922C141.602 46.1121 140.275 49.0121 140.742 49.9022C141.903 52.1249 143.418 50.379 144.171 48.7529C144.046 48.9192 143.893 49.0317 143.71 49.0904C145.303 49.8948 145.321 51.7997 146.08 53.1299L145.77 82.0985Z" stroke="black" stroke-miterlimit="10" stroke-linecap="round" stroke-linejoin="round"/>
<path d="M126.493 155.862C126.72 156.508 126.552 154.71 126.548 154.295C127.102 154.265 127.698 154.197 128.255 154.172C128.316 154.26 128.324 152.989 128.255 153.079C127.301 152.837 127.111 152.194 126.458 151.786C127.86 149.289 130.747 149.324 132.238 147.304C133.595 145.465 132.486 142.509 135.219 141.641C136.253 145.529 137.908 144.025 139.658 142.844C142.233 141.105 141.55 139.838 145.042 140.367C148.733 140.927 148.394 141.89 151.991 139.562C154.629 137.853 153.1 138.129 156.674 138.643C158.763 138.944 160.93 139.066 162.879 137.951C164.937 136.775 165.712 134.699 167.56 133.459C170.537 131.461 170.522 133.483 173.3 134.283C175.79 134.997 178.451 133.51 181 133.916C180.982 137.092 171.225 139.445 168.586 141.078C164.051 143.888 159.424 145.352 154.481 147.314C149.352 149.348 144.597 151.006 139.296 152.304C136.897 152.894 127.814 156.564 126.493 155.045" stroke="black" stroke-miterlimit="10" stroke-linecap="round" stroke-linejoin="round"/>
</svg>
